<svg height="526" width="720" xmlns="http://www.w3.org/2000/svg">
<rect height="526" fill="#555" width="720"></rect>
<text fill="#7f7" font-family="Courier New" font-size="12" xml:space="preserve">
<tspan x="10" y="26">3 megabytes installed</tspan>
<tspan x="10" y="42"></tspan>
<tspan x="10" y="58">node_modules</tspan>
<tspan x="10" y="74">└─┬ gulp-prefix@0.0.15 </tspan>
<tspan x="10" y="90">  ├─┬ concat-stream@1.4.10 </tspan>
<tspan x="10" y="106">  │ ├── inherits@2.0.3 </tspan>
<tspan x="10" y="122">  │ ├─┬ readable-stream@1.1.14 </tspan>
<tspan x="10" y="138">  │ │ ├── core-util-is@1.0.2 </tspan>
<tspan x="10" y="154">  │ │ ├── isarray@0.0.1 </tspan>
<tspan x="10" y="170">  │ │ └── string_decoder@0.10.31 </tspan>
<tspan x="10" y="186">  │ └── typedarray@0.0.6 </tspan>
<tspan x="10" y="202">  ├─┬ through2@1.0.0 </tspan>
<tspan x="10" y="218">  │ └─┬ xtend@2.1.2 </tspan>
<tspan x="10" y="234">  │   └── object-keys@0.4.0 </tspan>
<tspan x="10" y="250">  ├─┬ trumpet@1.7.2 </tspan>
<tspan x="10" y="266">  │ ├── duplexer2@0.0.2 </tspan>
<tspan x="10" y="282">  │ ├─┬ html-select@2.3.24 </tspan>
<tspan x="10" y="298">  │ │ ├─┬ cssauron@1.4.0 </tspan>
<tspan x="10" y="314">  │ │ │ └── through@2.3.8 </tspan>
<tspan x="10" y="330">  │ │ ├── minimist@0.0.10 </tspan>
<tspan x="10" y="346">  │ │ ├── split@0.3.3 </tspan>
<tspan x="10" y="362">  │ │ └─┬ stream-splicer@1.3.2 </tspan>
<tspan x="10" y="378">  │ │   ├── indexof@0.0.1 </tspan>
<tspan x="10" y="394">  │ │   └── readable-wrap@1.0.0 </tspan>
<tspan x="10" y="410">  │ └─┬ html-tokenize@1.2.5 </tspan>
<tspan x="10" y="426">  │   ├── readable-stream@1.0.34 </tspan>
<tspan x="10" y="442">  │   └── through2@0.4.2 </tspan>
<tspan x="10" y="458">  ├─┬ url@0.10.3 </tspan>
<tspan x="10" y="474">  │ ├── punycode@1.3.2 </tspan>
<tspan x="10" y="490">  │ └── querystring@0.2.0 </tspan>
<tspan x="10" y="506">  └── url-join@0.0.1</tspan>
</text>
</svg>
